<svg id="visual" viewBox="0 0 900 600" width="900" height="600" xmlns="http://www.w3.org/2000/svg" xmlns:xlink="http://www.w3.org/1999/xlink" version="1.1"><g transform="translate(451.9557511855613 273.8829090748962)"><path d="M164.7 -208.8C201.3 -165.6 210.5 -102.2 232.6 -32.7C254.7 36.7 289.7 112.1 270.6 166.5C251.4 220.8 178 254.2 102.7 281.2C27.4 308.2 -49.9 328.9 -117.3 309.8C-184.7 290.7 -242.2 231.9 -266.3 165.6C-290.4 99.4 -281.1 25.7 -251.2 -27.1C-221.4 -79.8 -171 -111.7 -125.7 -153.4C-80.4 -195.1 -40.2 -246.5 11.9 -260.8C64.1 -275 128.1 -252 164.7 -208.8" fill="#B4BEC9"></path></g></svg>